<svg id="svg" xmlns="http://www.w3.org/2000/svg" xmlns:xlink="http://www.w3.org/1999/xlink" width="400" height="400" viewBox="0, 0, 400,400" fill="#000000" stroke="#000000" enable-background="1"><g id="svgg" fill="#000000" stroke="#000000" enable-background="1">
  <ellipse ry="200" rx="200" id="svg_6" cy="200" cx="200" stroke="none" fill="#101417"/>
  <path id="path0" d="M192.163 0.680 C 92.736 4.333,10.297 82.290,1.226 181.236 C -10.441 308.502,97.487 413.327,224.540 398.129 C 248.446 395.270,272.285 387.717,293.929 376.144 C 348.437 347.000,386.827 293.786,396.886 233.429 C 417.744 108.285,318.998 -3.979,192.163 0.680 M207.506 22.519 C 311.745 27.078,389.387 119.090,376.361 222.627 C 364.741 314.998,282.803 382.998,189.744 377.501 C 84.820 371.302,8.404 276.722,24.306 172.737 C 37.935 83.613,117.257 18.571,207.506 22.519 M191.501 49.823 C 123.567 52.806,64.112 105.250,51.878 172.984 C 34.021 271.853,116.225 360.352,216.004 349.677 C 314.992 339.087,376.721 236.626,339.774 144.242 C 315.752 84.176,257.270 46.936,191.501 49.823 M205.524 105.849 C 236.461 107.426,257.464 131.528,254.323 161.850 C 253.020 174.432,249.776 179.489,230.561 198.896 C 210.856 218.797,208.799 222.621,207.897 241.004 L 207.634 246.358 196.422 246.358 L 185.210 246.358 185.210 243.212 C 185.212 231.053,187.531 219.896,191.621 212.362 C 195.462 205.286,199.512 200.451,212.273 187.701 C 223.610 176.373,225.564 173.924,228.151 167.789 C 234.426 152.909,227.945 133.963,214.674 128.393 C 205.516 124.549,191.296 124.782,182.614 128.918 C 171.420 134.250,166.012 144.822,164.942 163.466 L 164.790 166.115 153.477 166.172 L 142.163 166.229 142.163 164.668 C 142.163 128.723,166.657 104.291,201.325 105.657 C 202.357 105.698,204.246 105.784,205.524 105.849 M209.934 280.132 L 209.934 293.377 197.241 293.377 L 184.547 293.377 184.547 280.132 L 184.547 266.887 197.241 266.887 L 209.934 266.887 209.934 280.132 " stroke="none" fill="#3c6286" fill-rule="evenodd"></path></g></svg>
