<svg width="182" height="182" xmlns="http://www.w3.org/2000/svg">
 <!-- Created with SVG Editor - http://github.com/mzalive/SVG Editor/ -->
 <g>
  <title>background</title>
  <rect fill="none" id="canvas_background" height="184" width="184" y="-1" x="-1"/>
  <g display="none" overflow="visible" y="0" x="0" height="100%" width="100%" id="canvasGrid">
   <rect fill="url(#gridpattern)" stroke-width="0" y="0" x="0" height="100%" width="100%"/>
  </g>
 </g>
 <g>
  <title>Layer 1</title>
  <ellipse ry="85.5" rx="85.5" id="svg_6" cy="90.983337" cx="91" stroke-width="10" stroke="#546a77" fill="#1b1e23"/>
  <ellipse ry="67.499996" rx="67.499996" id="svg_1" cy="90.983342" cx="91.000001" stroke-width="1.5" stroke="#546a77" fill="#546a77"/>
  <path d="m226.5,155.983337c0,-0.276245 0,-0.5 0,-0.5c0,0 0,0.223755 0,0.5c0,0.276245 0,0.5 0,0.5c0,0 0,-0.223755 0,-0.5z"/>
  <path d="m226.5,155.983337c0,-0.276245 0,-0.5 0,-0.5c0,0 0,0.223755 0,0.5c0,0.276245 0,0.5 0,0.5c0,0 0,-0.223755 0,-0.5z"/>
  <path d="m226.5,155.983337c0,-0.276245 0,-0.5 0,-0.5c0,0 0,0.223755 0,0.5c0,0.276245 0,0.5 0,0.5c0,0 0,-0.223755 0,-0.5z"/>
  <path d="m226.5,155.983337c0,-0.276245 0,-0.5 0,-0.5c0,0 0,0.223755 0,0.5c0,0.276245 0,0.5 0,0.5c0,0 0,-0.223755 0,-0.5z"/>
  <path d="m226.5,155.983337c0,-0.276245 0,-0.5 0,-0.5c0,0 0,0.223755 0,0.5c0,0.276245 0,0.5 0,0.5c0,0 0,-0.223755 0,-0.5z"/>
  <path d="m226.5,155.983337c0,-0.276245 0,-0.5 0,-0.5c0,0 0,0.223755 0,0.5c0,0.276245 0,0.5 0,0.5c0,0 0,-0.223755 0,-0.5z"/>
  <path d="m226.5,155.983337c0,-0.276245 0,-0.5 0,-0.5c0,0 0,0.223755 0,0.5c0,0.276245 0,0.5 0,0.5c0,0 0,-0.223755 0,-0.5z"/>
  <path d="m226.5,155.983337c0,-0.276245 0,-0.5 0,-0.5c0,0 0,0.223755 0,0.5c0,0.276245 0,0.5 0,0.5c0,0 0,-0.223755 0,-0.5z"/>
  <path d="m226.5,155.983337c0,-0.276245 0,-0.5 0,-0.5c0,0 0,0.223755 0,0.5c0,0.276245 0,0.5 0,0.5c0,0 0,-0.223755 0,-0.5z"/>
  <path d="m226.5,155.983337c0,-0.276245 0,-0.5 0,-0.5c0,0 0,0.223755 0,0.5c0,0.276245 0,0.5 0,0.5c0,0 0,-0.223755 0,-0.5z"/>
  <path d="m226.5,155.983337c0,-0.276245 0,-0.5 0,-0.5c0,0 0,0.223755 0,0.5c0,0.276245 0,0.5 0,0.5c0,0 0,-0.223755 0,-0.5z"/>
  <path d="m226.5,155.983337c0,-0.276245 0,-0.5 0,-0.5c0,0 0,0.223755 0,0.5c0,0.276245 0,0.5 0,0.5c0,0 0,-0.223755 0,-0.5z"/>
  <path d="m226.5,155.983337c0,-0.276245 0,-0.5 0,-0.5c0,0 0,0.223755 0,0.5c0,0.276245 0,0.5 0,0.5c0,0 0,-0.223755 0,-0.5z"/>
  <path d="m226.5,155.983337c0,-0.276245 0,-0.5 0,-0.5c0,0 0,0.223755 0,0.5c0,0.276245 0,0.5 0,0.5c0,0 0,-0.223755 0,-0.5z"/>
  <path d="m226.5,155.983337c0,-0.276245 0,-0.5 0,-0.5c0,0 0,0.223755 0,0.5c0,0.276245 0,0.5 0,0.5c0,0 0,-0.223755 0,-0.5z"/>
  <path d="m226.5,155.983337c0,-0.276245 0,-0.5 0,-0.5c0,0 0,0.223755 0,0.5c0,0.276245 0,0.5 0,0.5c0,0 0,-0.223755 0,-0.5z"/>
  <path d="m224.5,153.983337c0,-0.276245 0,-0.5 0,-0.5c0,0 0,0.223755 0,0.5c0,0.276245 0,0.5 0,0.5c0,0 0,-0.223755 0,-0.5z"/>
  <path d="m224.5,153.983337c0,-0.276245 0,-0.5 0,-0.5c0,0 0,0.223755 0,0.5c0,0.276245 0,0.5 0,0.5c0,0 0,-0.223755 0,-0.5z"/>
  <ellipse transform="rotate(1.4688, 224.5, 153.983)" ry="0.5" id="svg_2" cy="153.983337" cx="224.5" stroke-width="1.5" stroke="#000" fill="#1b1e23"/>
  <text transform="matrix(3.89671, 0, 0, 3.89671, -962.273, -487.141)" xml:space="preserve" text-anchor="start" font-family="Arial,'PT Sans', sans-serif" font-size="18" id="svg_5" y="154.788156" x="258" stroke-width="0" stroke="#546a77" fill="#1b1e23">Вы</text>
 </g>
</svg>